<svg width="15" height="14" viewBox="0 0 15 14" fill="none" xmlns="http://www.w3.org/2000/svg">
<g clip-path="url(#clip0_1700_157)">
<path d="M12.6297 10.4999H10.4809V8.36767C10.484 8.23818 10.4319 8.11285 10.3362 8.01907C10.292 7.97321 10.2378 7.93669 10.1773 7.91194C10.1168 7.88719 10.0513 7.87479 9.98519 7.87557C9.91899 7.87469 9.85335 7.88704 9.79268 7.9118C9.73201 7.93655 9.67772 7.97312 9.63344 8.01907C9.53773 8.11285 9.48569 8.23818 9.48869 8.36767V10.5006H7.45019C7.38412 10.4998 7.31862 10.5122 7.25809 10.5369C7.19756 10.5617 7.14339 10.5982 7.09919 10.6441C7.00348 10.7378 6.95144 10.8632 6.95444 10.9927C6.95144 11.1222 7.00348 11.2475 7.09919 11.3413C7.14339 11.3871 7.19756 11.4236 7.25809 11.4484C7.31862 11.4731 7.38412 11.4855 7.45019 11.4848H9.48869V13.5078C9.48569 13.6373 9.53773 13.7626 9.63344 13.8564C9.67772 13.9023 9.73201 13.9389 9.79268 13.9636C9.85335 13.9884 9.91899 14.0007 9.98519 13.9999C10.1224 13.9999 10.2402 13.9523 10.3362 13.8564C10.4319 13.7626 10.484 13.6373 10.4809 13.5078V11.4848H12.6297C12.6958 11.4855 12.7612 11.4731 12.8218 11.4483C12.8823 11.4236 12.9365 11.3871 12.9807 11.3413C13.0764 11.2475 13.1285 11.1222 13.1254 10.9927C13.1285 10.8632 13.0764 10.7378 12.9807 10.6441C12.9365 10.5982 12.8823 10.5617 12.8218 10.5369C12.7613 10.5122 12.6958 10.4998 12.6297 10.5006M13.0167 3.51947L9.99794 0.336568L9.66794 0.00126754H2.83544C2.70794 0.00126754 2.56544 -0.00573246 2.44094 0.0131675C2.29157 0.0329634 2.15505 0.102894 2.05694 0.209868C1.84619 0.432468 1.87694 0.711768 1.87694 0.985468V13.015C1.87694 13.2887 1.84319 13.5848 2.05694 13.792C2.27069 13.9992 2.41394 13.9992 2.68919 13.9992H6.45794C6.52414 14 6.58976 13.9876 6.65043 13.9629C6.71109 13.9381 6.76539 13.9016 6.80969 13.8557C6.90541 13.7619 6.95745 13.6366 6.95444 13.5071C6.95745 13.3776 6.90541 13.2522 6.80969 13.1585C6.76542 13.1125 6.71112 13.0759 6.65045 13.0512C6.58979 13.0264 6.52415 13.0141 6.45794 13.015H2.88419L2.87969 0.954668H8.33594V3.46977C8.33594 3.74347 8.44994 3.98987 8.62919 4.16697C8.80919 4.34407 9.05669 4.45397 9.33194 4.45397H12.1332V7.38347C12.1302 7.51296 12.1822 7.63829 12.2779 7.73207C12.3221 7.77792 12.3763 7.81445 12.4368 7.83919C12.4974 7.86394 12.5629 7.87634 12.6289 7.87557C12.7669 7.87557 12.8839 7.82727 12.9807 7.73207C13.0761 7.63818 13.1279 7.51286 13.1247 7.38347V3.83237L13.1254 3.63707L13.0167 3.51947ZM9.38894 3.39907C9.35819 3.36197 9.33944 3.29687 9.33269 3.20307V1.06387L11.6269 3.46977H9.57044C9.48044 3.45857 9.42044 3.43477 9.38894 3.39767" fill="black"/>
</g>
<defs>
<clipPath id="clip0_1700_157">
<rect width="15" height="14" fill="white"/>
</clipPath>
</defs>
</svg>
